<svg xmlns="http://www.w3.org/2000/svg" xmlns:xlink="http://www.w3.org/1999/xlink" width="1119" height="539" x="0" y="0" version="1.1" viewBox="0 0 1119 539" xml:space="preserve" style="enable-background:new 0 0 1119 539"><style type="text/css">.st4{fill:none;stroke:#c8c8c8;stroke-width:.5;stroke-miterlimit:10}.st5{fill:#f8fafd}.st6{fill:#e5ebf2}.st7{clip-path:url(#SVGID_5_);fill:#3585f9}.st8{fill:none;stroke:#fff;stroke-width:3;stroke-miterlimit:10}.st9{fill:#3585f9}</style><g id="Capa_2"><g><defs><rect id="SVGID_2_" width="368.2" height="540.3" x="-475.4" y="-600.5"/></defs><clipPath id="SVGID_1_"><use xlink:href="#SVGID_2_" style="overflow:visible"/></clipPath><g style="opacity:.6;clip-path:url(#SVGID_1_)"><circle cx="-122.7" cy="-173.2" r="181.3" class="st4"/><circle cx="-122.7" cy="-173.2" r="232.2" class="st4"/><circle cx="-122.7" cy="-173.2" r="281.2" class="st4"/></g></g><g><rect width="1133.4" height="558.4" x="-4.1" y="-8.2" class="st9"/></g><linearGradient id="SVGID_3_" x1="750.638" x2="1050.894" y1="272.979" y2="272.979" gradientTransform="matrix(-1 0 0 -1 1966.9788 545.9575)" gradientUnits="userSpaceOnUse"><stop offset="0" style="stop-color:#dbb6fc"/><stop offset=".159" style="stop-color:#c7b0fc"/><stop offset=".484" style="stop-color:#93a1fb"/><stop offset=".945" style="stop-color:#3f88f9"/><stop offset="1" style="stop-color:#3585f9"/></linearGradient><polygon style="fill:url(#SVGID_3_)" points="1173.4 -3.5 873.2 -3.5 873.2 549.5 1173.4 549.5"/><g><circle cx="1044.7" cy="269.5" r="195.8" class="st5"/><path d="M861.7,339.9c12.9,34,35.1,63.4,63.3,85.2h239.4c28.3-21.9,50.4-51.3,63.3-85.2H861.7z" class="st6"/><rect width="8.7" height="19" x="1000.4" y="208.4" class="st5"/><g><g><defs><path id="SVGID_7_" d="M1044.2,174.8L1044.2,174.8c-0.1,0-0.1,0-0.1,0c0,0,0,0-0.1,0l0,0c-0.6,0.2-1.7,0.7-15.9,8.5 c-14.2,7.7-41.6,22.8-55.2,30.2c-10.7,5.9-13,7.2-13.5,7.4c-0.2,0.1-0.1,0-0.1,0.2c0,0.4,0.1,1.9,0.5,7.5 c3.6,53.1,31.3,110.5,81.2,134.2l2.8,1.3l0.3,0.1l0.3-0.1l2.8-1.3c50-23.7,77.6-81.1,81.2-134.2c0.4-5.6,0.5-7.1,0.5-7.5 c0-0.2,0-0.1-0.1-0.2c-0.5-0.3-2.8-1.5-13.5-7.4c-13.6-7.5-41-22.5-55.2-30.2C1045.8,175.5,1044.7,175,1044.2,174.8"/></defs><use xlink:href="#SVGID_7_" style="overflow:visible;fill-rule:evenodd;clip-rule:evenodd;fill:#3585f9"/><clipPath id="SVGID_5_"><use xlink:href="#SVGID_7_" style="overflow:visible"/></clipPath><rect width="169.7" height="189.5" x="959.2" y="174.8" class="st7"/></g><g><g><g><polyline points="1070.4 251.3 1095.4 268.7 1070.4 286.1" class="st8"/></g><g><polyline points="1017.8 286.1 992.9 268.7 1017.8 251.3" class="st8"/></g></g><line x1="1052.8" x2="1035.9" y1="252.8" y2="289.4" class="st8"/></g></g></g></g><g id="Capa_1"><g><g><defs><rect id="SVGID_60_" width="216.9" height="105.2" x="864.7" y="796.6"/></defs><clipPath id="SVGID_6_"><use xlink:href="#SVGID_60_" style="overflow:visible"/></clipPath><g style="clip-path:url(#SVGID_6_)"><image style="overflow:visible" width="1119" height="539" transform="matrix(1 0 0 1 415.5532 507.6489)" xlink:href="B283E010.jpg"/></g></g></g></g></svg>